<?xml version="1.0" standalone="no"?>
<!DOCTYPE svg PUBLIC "-//W3C//DTD SVG 20010904//EN"
 "http://www.w3.org/TR/2001/REC-SVG-20010904/DTD/svg10.dtd">
<svg version="1.0" xmlns="http://www.w3.org/2000/svg"
 width="738.000000pt" height="682.000000pt" viewBox="0 0 738.000000 682.000000"
 preserveAspectRatio="xMidYMid meet">

<g transform="translate(0.000000,682.000000) scale(0.100000,-0.100000)"
fill="#000000" stroke="none">
<path d="M2370 6408 c-291 -235 -564 -502 -755 -740 -128 -159 -296 -409 -383
-570 -293 -542 -441 -1234 -357 -1668 100 -518 450 -936 1058 -1265 48 -26 90
-46 91 -44 2 2 -4 47 -14 99 -57 292 -72 751 -37 1068 28 248 112 688 136 715
4 4 4 -23 0 -60 -34 -320 -36 -806 -4 -1083 43 -377 121 -690 240 -966 155
-359 337 -637 578 -887 l84 -88 -29 -92 c-41 -125 -77 -304 -85 -411 -8 -109
7 -145 73 -176 36 -18 49 -19 81 -11 84 23 108 60 129 200 44 293 163 598 322
821 104 147 340 379 482 472 226 149 461 244 715 289 116 21 164 23 445 24
283 1 324 3 405 22 241 57 427 163 599 343 107 113 198 249 280 421 58 120
164 405 155 413 -22 20 -409 146 -586 190 -775 197 -1368 100 -1757 -288 -119
-119 -209 -248 -295 -421 -56 -111 -131 -297 -131 -321 0 -2 36 27 80 65 320
276 722 433 1225 476 44 4 78 5 75 2 -3 -3 -55 -22 -115 -42 -512 -171 -944
-477 -1284 -910 -47 -60 -106 -128 -131 -150 -124 -111 -250 -240 -323 -333
-72 -90 -189 -263 -199 -294 -9 -25 -190 191 -302 357 -68 101 -220 395 -245
471 l-14 42 55 68 c319 398 523 873 604 1408 24 158 30 595 10 783 -55 521
-204 1041 -462 1619 -78 174 -267 547 -279 550 -6 2 -66 -42 -135 -98z"/>
</g>
</svg>
